<?xml version="1.0" standalone="no"?>
<!DOCTYPE svg PUBLIC "-//W3C//DTD SVG 20010904//EN"
 "http://www.w3.org/TR/2001/REC-SVG-20010904/DTD/svg10.dtd">
<svg version="1.0" xmlns="http://www.w3.org/2000/svg"
 width="1000.000000pt" height="1000.000000pt" viewBox="0 0 1000.000000 1000.000000"
 preserveAspectRatio="xMidYMid meet">
<metadata>
Created by potrace 1.11, written by Peter Selinger 2001-2013
</metadata>
<g transform="translate(0.000000,1000.000000) scale(0.100000,-0.100000)"
fill="#000000" stroke="none">
<path d="M4820 8178 c-77 -12 -146 -47 -214 -108 -100 -92 -125 -152 -122
-294 1 -67 5 -79 38 -129 75 -112 179 -154 314 -127 81 17 148 54 219 125 85
84 103 125 110 261 4 82 -11 122 -73 187 -68 71 -163 101 -272 85z"/>
<path d="M4373 7172 c-95 -1 -173 -5 -173 -8 0 -3 11 -20 24 -37 46 -61 69
-120 72 -180 3 -64 -5 -92 -61 -212 -46 -99 -268 -579 -305 -660 -15 -33 -44
-95 -64 -138 -48 -105 -52 -141 -19 -167 14 -11 34 -20 44 -20 11 0 19 -2 19
-4 0 -5 -75 -161 -425 -881 -53 -110 -119 -245 -145 -300 -89 -184 -257 -468
-282 -478 -21 -8 -748 -194 -793 -203 -134 -26 -518 -135 -730 -206 -377 -127
-707 -290 -875 -433 -200 -170 -321 -336 -395 -540 -62 -171 -87 -342 -64
-447 13 -60 63 -156 102 -198 111 -118 236 -180 432 -216 72 -13 391 -12 470
1 392 65 781 256 1100 539 381 339 774 857 1138 1501 31 55 60 106 65 112 4 7
82 42 173 77 516 201 728 325 973 570 143 144 240 263 363 446 53 78 186 307
216 373 10 20 20 37 23 37 3 0 4 -3 2 -7 -22 -45 -71 -149 -141 -298 -125
-265 -188 -398 -293 -612 -52 -106 -94 -195 -94 -197 0 -2 21 2 46 10 25 7 80
16 122 19 267 18 307 26 348 63 16 15 58 81 93 147 128 242 410 719 440 745 4
3 19 25 35 50 30 47 183 257 201 276 5 6 24 29 40 50 108 139 346 386 513 533
222 195 382 292 432 261 11 -7 15 -28 15 -82 -1 -99 -41 -214 -166 -476 -34
-70 -79 -167 -101 -217 -22 -49 -49 -110 -60 -134 -105 -232 -233 -598 -254
-726 -3 -22 -8 -44 -11 -48 -12 -20 -11 -157 1 -198 44 -145 111 -218 215
-235 30 -5 42 -3 45 7 45 146 69 206 126 324 103 212 234 422 432 693 93 127
274 360 289 372 3 3 30 34 60 70 75 91 349 363 439 435 41 33 77 63 80 66 3 3
33 25 66 47 114 78 196 102 269 79 51 -15 69 -46 61 -104 -9 -65 -37 -123
-173 -349 -167 -279 -241 -416 -308 -569 -38 -88 -87 -237 -100 -306 -5 -24
-10 -50 -21 -99 -3 -14 -8 -73 -11 -131 -10 -186 22 -295 121 -405 62 -70 148
-127 224 -150 44 -13 82 -15 167 -11 173 8 275 49 442 173 236 177 386 371
666 864 92 160 273 534 280 575 7 42 -6 69 -41 84 -41 19 -61 -3 -124 -137
-133 -282 -231 -469 -316 -602 -154 -241 -221 -334 -351 -487 -230 -271 -482
-359 -562 -197 -21 42 -24 63 -23 149 0 55 6 125 13 155 6 30 13 64 15 75 7
32 51 173 84 265 130 373 443 1011 869 1773 11 20 10 23 -14 33 -90 38 -373
-52 -658 -211 -511 -283 -827 -531 -1195 -934 -47 -52 -90 -99 -95 -105 -6 -6
-55 -64 -109 -128 -54 -65 -100 -118 -103 -118 -3 0 -1 6 4 13 6 6 35 59 65
117 59 112 133 249 273 505 111 204 236 461 265 545 49 146 13 233 -125 304
-54 28 -59 29 -105 17 -27 -7 -64 -15 -82 -17 -53 -8 -82 -20 -170 -71 -46
-27 -96 -55 -112 -63 -25 -13 -292 -221 -306 -239 -5 -7 -63 -59 -210 -191
-52 -47 -122 -110 -155 -140 -33 -30 -92 -82 -130 -115 -123 -106 -237 -224
-409 -425 -12 -14 -61 -73 -110 -132 -49 -60 -90 -108 -92 -108 -7 0 279 545
373 710 234 411 433 688 568 787 l30 23 -40 -2 c-49 -2 -156 10 -210 24 -90
23 -225 9 -305 -32 -126 -64 -269 -288 -597 -930 -116 -227 -132 -256 -117
-210 13 41 7 72 -17 91 -51 38 -72 16 -187 -204 -27 -50 -64 -119 -82 -152
-18 -33 -48 -89 -68 -125 -167 -309 -324 -557 -421 -670 -172 -197 -436 -403
-616 -479 -44 -18 -98 -42 -120 -51 -84 -37 -307 -121 -311 -117 -3 2 43 99
101 216 58 116 105 213 105 215 0 2 31 68 69 147 38 79 92 198 121 264 61 138
95 217 116 262 8 17 14 34 14 37 0 3 12 31 26 63 14 32 31 72 39 88 7 17 133
311 280 655 147 344 280 652 295 685 90 193 46 255 -181 258 -57 1 -182 1
-276 -1z m-1483 -3399 c-56 -98 -170 -274 -243 -373 -62 -84 -173 -226 -187
-240 -3 -3 -46 -52 -97 -110 -189 -219 -593 -605 -747 -715 -15 -11 -39 -28
-52 -38 -283 -215 -652 -337 -888 -294 -116 21 -222 93 -268 181 -68 131 -1
385 166 631 37 55 206 233 267 281 102 82 292 190 425 243 127 49 386 135 609
200 39 11 115 34 170 50 55 17 258 73 450 125 193 52 366 99 385 105 19 5 37
10 38 10 2 1 -11 -25 -28 -56z"/>
</g>
</svg>
