<?xml version="1.0" standalone="no"?>
<!DOCTYPE svg PUBLIC "-//W3C//DTD SVG 20010904//EN"
 "http://www.w3.org/TR/2001/REC-SVG-20010904/DTD/svg10.dtd">
<svg version="1.0" xmlns="http://www.w3.org/2000/svg"
 width="16.000000pt" height="16.000000pt" viewBox="0 0 16.000000 16.000000"
 preserveAspectRatio="xMidYMid meet">
<metadata>
Created by potrace 1.11, written by Peter Selinger 2001-2013
</metadata>
<g transform="translate(0.000000,16.000000) scale(0.003200,-0.003200)"
fill="#000000" stroke="none">
<path d="M627 4556 c-85 -31 -155 -104 -177 -187 -7 -24 -9 -679 -8 -1885 l3
-1849 22 -41 c28 -53 74 -99 127 -127 l41 -22 1870 0 1870 0 41 22 c53 28 99
74 127 127 l22 41 0 1870 0 1870 -22 41 c-28 53 -74 99 -127 127 l-41 22
-1855 2 c-1539 2 -1861 0 -1893 -11z m3733 -144 c20 -10 42 -32 52 -52 17 -33
18 -142 18 -1855 0 -1713 -1 -1822 -18 -1855 -10 -20 -32 -42 -52 -52 -33 -17
-142 -18 -1855 -18 -1713 0 -1822 1 -1855 18 -20 10 -42 32 -52 52 -17 33 -18
142 -18 1855 0 1713 1 1822 18 1855 10 20 32 42 52 52 33 17 142 18 1855 18
1713 0 1822 -1 1855 -18z"/>
<path d="M2030 4045 c0 -41 3 -75 8 -75 4 0 81 -9 172 -20 91 -11 166 -20 168
-20 2 0 1 -480 -1 -1067 -3 -771 -7 -1090 -16 -1148 -50 -330 -171 -518 -406
-631 -38 -19 -75 -34 -82 -34 -26 0 -22 -22 12 -76 35 -55 37 -56 73 -49 55
10 149 44 217 78 214 106 378 298 440 510 49 168 48 154 52 1320 2 603 7 1097
11 1097 4 0 77 9 162 20 85 11 158 20 163 20 4 0 7 34 7 75 l0 75 -490 0 -490
0 0 -75z"/>
</g>
</svg>
